<svg width="25" height="19" viewBox="0 0 25 19" fill="none" xmlns="http://www.w3.org/2000/svg">
<path d="M23.4626 0.912598H18.5751C18.4376 0.912598 18.3376 1.0251 18.3376 1.1501V2.8126C18.3376 2.9501 18.4501 3.0501 18.5751 3.0501H22.2751V16.2126H2.72515V3.0626H6.42515C6.56265 3.0626 6.66265 2.9501 6.66265 2.8251V1.1501C6.66265 1.0126 6.55015 0.912598 6.42515 0.912598H1.53765C1.01265 0.912598 0.587646 1.3376 0.587646 1.8626V17.4126C0.587646 17.9376 1.01265 18.3626 1.53765 18.3626H23.4626C23.9876 18.3626 24.4126 17.9376 24.4126 17.4126V1.8751C24.4126 1.3501 23.9876 0.912598 23.4626 0.912598Z" fill="#6B47ED"/>
</svg>
