<svg width="270" height="58" viewBox="0 0 270 58" fill="none" xmlns="http://www.w3.org/2000/svg">
<path d="M44.5999 22.4523C50.7684 22.3893 55.7179 17.3377 55.6549 11.1692C55.592 5.00061 50.5404 0.0510303 44.3719 0.113971C38.2034 0.176912 33.2539 5.22854 33.3168 11.3971C33.3798 17.5656 38.4314 22.5152 44.5999 22.4523Z" fill="#D4CCF7"/>
<path d="M14.963 3.52366C12.2687 -0.167016 7.09056 -0.980931 3.39991 1.71341C-0.290732 4.40774 -1.10464 9.58592 1.58967 13.2626L22.5408 41.9881C25.2351 45.6788 30.3992 46.4787 34.1038 43.7984C37.7945 41.104 38.6084 35.9399 35.9141 32.2492L14.963 3.52366Z" fill="#D4CCF7"/>
<path d="M95.7082 33.5121L84.3836 3.35522L74.6589 3.39731L90.1792 41.4969C91.3439 44.5982 94.796 46.1699 97.8973 45.0052C99.5391 44.3877 100.83 43.0826 101.42 41.4408L116.575 3.20085L106.906 3.24295L95.7082 33.5121Z" fill="white"/>
<path d="M127.255 15.4636L118.751 15.4963L118.864 44.7972L127.368 44.7646L127.255 15.4636Z" fill="white"/>
<path d="M122.89 1.76952C120.013 1.78356 117.754 3.93061 117.768 6.80737C117.782 9.628 120.055 11.6909 122.932 11.6768C125.739 11.6628 127.998 9.57187 127.984 6.76527C127.984 3.88851 125.71 1.75549 122.89 1.76952Z" fill="white"/>
<path d="M130.861 28.0673L130.917 44.7526L139.421 44.7245L139.364 28.4322C139.364 28.4322 139 20.7 149.623 22.9733L149.594 15.4797C138.719 12.8977 130.861 17.8092 130.861 28.0673Z" fill="white"/>
<path d="M200.155 14.5536C191.104 14.5957 184.073 21.0368 184.115 29.9057C184.143 38.8307 191.23 45.4121 200.281 45.3841C209.276 45.356 216.363 38.7184 216.321 29.7794C216.293 20.9105 209.15 14.5255 200.155 14.5536ZM200.253 37.7922C195.791 37.8062 192.521 34.2699 192.493 29.8636C192.479 25.5274 195.72 22.1454 200.183 22.1314C204.589 22.1173 207.915 25.4712 207.943 29.8074C207.957 34.2278 204.645 37.7782 200.253 37.7922Z" fill="white"/>
<path d="M173.577 15.564V17.1076C171.458 15.578 168.581 14.4273 164.932 14.4273C156.863 14.4273 150.338 20.6579 150.366 29.4707C150.394 37.1187 156.962 43.7563 165.045 43.7282C168.342 43.7142 171.093 42.8441 173.352 41.3707L173.366 43.3633C173.38 47.9521 170.461 50.4079 166.658 50.4219C162.617 50.436 160.161 48.4292 159.782 45.3701L151.222 45.3981C151.868 52.8637 158.182 58.0419 166.686 57.9998C175.555 57.9717 181.842 52.4287 181.8 43.2651L181.688 15.5219L173.577 15.564ZM166.672 36.6275C161.522 36.6275 158.814 33.3017 158.814 29.1058C158.814 24.952 161.705 21.5841 166.672 21.5841C171.177 21.5841 174.531 24.952 174.531 29.1058C174.531 33.2596 171.317 36.6275 166.672 36.6275Z" fill="white"/>
<path d="M259.921 17.2058L269.112 3.22894L261.072 3.25701L255.515 11.8171L249.916 3.29911L241.889 3.34121L251.136 17.2339L241.819 30.9161L249.551 30.874L255.585 22.3419L261.703 30.8319L269.435 30.8038L259.921 17.2058Z" fill="white"/>
<path d="M244.695 19.4511H237.903V19.4651C237.019 23.0856 234.676 24.9941 231.069 25.0081C226.579 25.0081 223.421 21.7525 223.407 17.0935C223.393 12.4346 226.523 9.13681 231.083 9.12278C234.634 9.12278 236.991 11.0172 237.889 14.6237L237.903 14.6798H244.695L244.653 14.3992C243.474 7.31252 238.156 2.73776 231.083 2.73776H231.027C227.112 2.7518 223.506 4.19719 220.853 6.82137C218.159 9.4736 216.686 13.1362 216.714 17.1356C216.742 25.2748 222.916 31.4212 231.083 31.4212H231.14C238.254 31.3932 243.559 26.7763 244.681 19.6475L244.695 19.4511Z" fill="white"/>
</svg>
